<?xml version="1.0" encoding="UTF-8" standalone="no"?>
<!DOCTYPE svg PUBLIC "-//W3C//DTD SVG 1.1//EN" "http://www.w3.org/Graphics/SVG/1.1/DTD/svg11.dtd">
<svg width="100%" height="100%" viewBox="0 0 100 100" version="1.1" xmlns="http://www.w3.org/2000/svg" xmlns:xlink="http://www.w3.org/1999/xlink" xml:space="preserve" xmlns:serif="http://www.serif.com/" style="fill-rule:evenodd;clip-rule:evenodd;stroke-linecap:square;stroke-linejoin:round;stroke-miterlimit:1.5;">
    <g id="Palico">
        <path id="shadow" d="M22,55l-10,0l0,-7l3,0l0,4l7,0l0,-7l15,-15l26,0l15,15l0,7l7,0l0,-4l3,0l0,7l-10,0l0,7l10,0l0,7l-3,0l0,-4l-7,0l0,7c0,2.208 -1.792,4 -4,4l-48,0c-2.208,0 -4,-1.792 -4,-4l0,-7l-7,0l0,4l-3,0l0,-7l10,0l0,-7Zm12,-26l-12,12l0,-24l12,12Zm32,0l12,-12l0,24l-12,-12Z" style="fill:none;stroke:#1b1b1b;stroke-width:4px;"/>
        <path d="M22,55l-10,0l0,-7l3,0l0,4l7,0l0,-7l15,-15l26,0l15,15l0,7l7,0l0,-4l3,0l0,7l-10,0l0,7l10,0l0,7l-3,0l0,-4l-7,0l0,7c0,2.208 -1.792,4 -4,4l-48,0c-2.208,0 -4,-1.792 -4,-4l0,-7l-7,0l0,4l-3,0l0,-7l10,0l0,-7Zm12,-26l-12,12l0,-24l12,12Zm32,0l12,-12l0,24l-12,-12Z" style="fill:#1b1b1b;"/>
        <path id="white" d="M78,45l0,27c0,2.208 -1.792,4 -4,4l-48,0c-2.208,0 -4,-1.792 -4,-4l0,-27l15,-15l26,0l15,15Z" style="fill:#fff;"/>
        <path id="grey--76--" serif:id="grey (76%)" d="M34,29l-12,12l0,-24l12,12Zm32,0l12,-12l0,24l-12,-12Z" style="fill:#c3c3c3;"/>
        <path id="grey--67--" serif:id="grey (67%)" d="M33,72l0,-8c0,-5 11,-9 17,-9c6,0 17,4 17,9l0,8l-34,0Z" style="fill:#aaa;"/>
        <path id="grey--50--" serif:id="grey (50%)" d="M15,65l0,4l-3,0l0,-7l14,0l0,3l-11,0Zm0,-13l11,0l0,3l-14,0l0,-7l3,0l0,4Zm70,13l-11,0l0,-3l14,0l0,7l-3,0l0,-4Zm0,-13l0,-4l3,0l0,7l-14,0l0,-3l11,0Z" style="fill:#808080;"/>
        <path id="grey--17--" serif:id="grey (17%)" d="M53,53l0,4c0,0.552 -0.448,1 -1,1l-4,0c-0.552,0 -1,-0.448 -1,-1l0,-4c0,-0.552 0.448,-1 1,-1l4,0c0.552,0 1,0.448 1,1Zm-18,-8c2.76,0 5,2.24 5,5c0,2.76 -2.24,5 -5,5c-2.76,0 -5,-2.24 -5,-5c0,-2.76 2.24,-5 5,-5Zm0,2.5c-1.38,0 -2.5,1.12 -2.5,2.5c0,1.38 1.12,2.5 2.5,2.5c1.38,0 2.5,-1.12 2.5,-2.5c0,-1.38 -1.12,-2.5 -2.5,-2.5Zm30,-2.5c2.76,0 5,2.24 5,5c0,2.76 -2.24,5 -5,5c-2.76,0 -5,-2.24 -5,-5c0,-2.76 2.24,-5 5,-5Zm0,2.5c-1.38,0 -2.5,1.12 -2.5,2.5c0,1.38 1.12,2.5 2.5,2.5c1.38,0 2.5,-1.12 2.5,-2.5c0,-1.38 -1.12,-2.5 -2.5,-2.5Zm-15,14.5c2,0 4,4 6,4c4,0 4,-6 4,-6c0,0 0,-1 1.463,-1c1.537,-0 1.537,1 1.537,1c0,0 0,9 -5,9c-5,0 -7,-3 -8,-3c-1,0 -3,3 -8,3c-5,0 -5,-9 -5,-9c0,0 0,-1 1.5,-1c1.5,0 1.5,1 1.5,1c0,0 0,6 4,6c2,0 4,-4 6,-4Z" style="fill:#2b2b2b;"/>
    </g>
</svg>
